<svg id="Layer_1" xmlns="http://www.w3.org/2000/svg" viewBox="0 0 1791.9 1095.4"><style>.st0{fill:#fff}.st1{fill:#c0dfef}.st2{fill:#ddeffc}.st3{fill:#9dd7ed}.st4{fill:none;stroke:#c0dfef;stroke-width:.5519;stroke-miterlimit:10}.st5{fill:#d1d9e3}</style><path class="st0" d="M1743.4 671.8c9.8.8 10.2 14.6 5.4 19.6-5.5 5.6-15 3.9-17.9-.9 0 0-1.6 5.2-14.1 4.7s-12.7-3.3-12.7-3.3-7.8 5.3-23 1.2c-10.7-2.8-7.6-14.5 1.3-12.4 0 0-1.4-2.7-.5-5.2 1.1-3.3 5-6.6 11.8-4.2 0 0-2.8-10.4 6.7-12.6 7.7-1.8 11 3.5 11 3.5s0-4 5.4-6.1c4.2-1.6 11.2-2 13.7 4.7 0 0 6-3.6 11 2.2 4.2 4.7 1.9 8.8 1.9 8.8z"/><path class="st1" d="M1743.5 671.7c.8 0 1.8.2 2.7.5.9.3 1.7.8 2.4 1.5 1.4 1.3 2.4 3 2.9 4.9 1 3.7.7 7.7-1.2 11.1-2 3.3-5.8 5.2-9.6 5.3-1.9.1-3.8-.2-5.6-1-1.7-.7-3.4-1.9-4.4-3.5h.4c-.3.6-.6 1.1-1.1 1.6-.4.4-.9.8-1.5 1.1-1.1.6-2.2 1.1-3.4 1.4-2.4.6-4.8.8-7.3.7-2.4 0-4.9-.2-7.3-.6-1.2-.2-2.4-.4-3.6-.8-.6-.2-1.2-.4-1.7-.7-.5-.3-1.1-.6-1.3-1.3l.2.1c-3.3 1.9-7.2 2.6-11 2.8-3.8.1-7.6-.4-11.3-1.3-.9-.2-1.8-.5-2.7-.8l-1.3-.7c-.4-.2-.8-.6-1.2-.8-1.5-1.2-2.6-3-2.6-5s1-3.9 2.7-4.9 3.8-1.1 5.7-.7l-.2.3c-.7-1.5-1-3.2-.7-4.9.4-1.6 1.4-3.1 2.7-4.1 1.3-1 3-1.5 4.7-1.5 1.7-.1 3.3.3 4.8.8l-.3.3c-.5-2.3-.6-4.8.2-7.1.7-2.3 2.6-4.2 4.8-5.1 2.2-.9 4.7-1.2 7.1-.8s4.6 1.8 6 3.8l-.3.1c.2-2.2 1.6-4 3.4-5.1 1.8-1.1 3.9-1.7 5.9-2 2.1-.2 4.3 0 6.1 1 1.9.9 3.2 2.8 4 4.7l-.2-.1c1.6-.9 3.5-1.2 5.3-1.1 1.8.2 3.6 1 4.9 2.3 1.3 1.2 2.4 2.8 3 4.5.3.9.4 1.8.4 2.7 0 .5-.1.9-.2 1.4 0 .2-.1.4-.2.7 0 .1-.1.2-.1.3 0 0 .1.2 0 0zm-.2.2c0-.2.1-.2.1-.3l.1-.2c0-.1.1-.2.1-.3.1-.2.1-.4.2-.6.1-.4.2-.9.2-1.3 0-.9-.1-1.8-.4-2.6-.6-1.7-1.6-3.2-2.9-4.4-1.3-1.2-3-2-4.8-2.2s-3.6.2-5.2 1.1l-.1.1-.1-.1c-.7-1.9-2-3.6-3.9-4.5-1.8-1-3.9-1.1-6-.9-2 .3-4.1.8-5.8 1.9-1.7 1.1-3.1 2.9-3.2 4.9v.5l-.3-.4c-1.3-1.9-3.5-3.2-5.7-3.6-2.3-.4-4.7-.1-6.8.8-2.1.9-3.9 2.6-4.6 4.9-.7 2.2-.7 4.6-.2 6.9l.1.4-.4-.1c-1.5-.5-3.1-.9-4.7-.8-1.6.1-3.2.5-4.4 1.5-1.3.9-2.2 2.3-2.6 3.8-.3 1.5 0 3.2.7 4.6l.2.4-.4-.1c-1.8-.4-3.8-.3-5.3.6-1.5 1-2.5 2.7-2.5 4.6 0 1.8 1 3.6 2.4 4.7.4.3.7.6 1.1.8l1.2.6c.9.3 1.7.7 2.7.8 3.7.9 7.4 1.4 11.2 1.3 3.7-.2 7.6-.8 10.8-2.7l.2-.1.1.2c.1.5.7.9 1.2 1.1.5.3 1.1.5 1.7.7 1.1.4 2.3.6 3.5.8 2.4.3 4.8.5 7.2.5 2.4 0 4.8-.1 7.2-.8 1.2-.3 2.3-.7 3.3-1.4.5-.3 1-.7 1.4-1.1.4-.4.8-.9 1-1.4l.2-.4.2.3c1 1.5 2.5 2.7 4.2 3.4 1.7.7 3.6 1 5.4.9 1.8-.1 3.7-.6 5.3-1.4.4-.2.8-.5 1.2-.7.4-.2.7-.6 1.1-.9.7-.6 1.2-1.3 1.7-2.1.9-1.6 1.4-3.4 1.6-5.2.2-1.8.1-3.7-.4-5.5s-1.4-3.4-2.7-4.7c-.7-.6-1.4-1.1-2.3-1.5-1.2-.5-2.1-.6-3.1-.8z"/><path class="st2" d="M1677.9 680.9c-2.8 2.8 1.3 8.6 6.9 9.4 16.9 2.3 20.6-4.5 20.6-4.5s0 5.3 11.6 5.7c11.6.4 13.2-7 13.2-7 2.7 4.4 11.9 7.7 17.3 2.8 3.8-3.5 4-8.1 2-12.1 3.4 4.6 2.7 12.7-.8 16.2-5.5 5.6-15 3.9-17.9-.9 0 0-1.6 5.2-14.1 4.7s-12.7-3.3-12.7-3.3-7.8 5.3-23 1.2c-8.6-2.3-8.2-10.3-3.1-12.2z"/><path class="st3" d="M1743.5 671.7c.8 0 1.8.2 2.7.5.9.3 1.7.8 2.4 1.5 1.4 1.3 2.4 3 2.9 4.9 1 3.7.7 7.7-1.2 11.1-2 3.3-5.8 5.2-9.6 5.3-1.9.1-3.8-.2-5.6-1-1.7-.7-3.4-1.9-4.4-3.5h.3c-.2.6-.6 1.1-1.1 1.6-.4.4-.9.8-1.5 1.1-1.1.6-2.2 1.1-3.4 1.4-2.4.6-4.8.8-7.3.7-2.4 0-4.9-.2-7.3-.6-1.2-.2-2.4-.4-3.6-.8-.6-.2-1.2-.4-1.7-.7-.5-.3-1.1-.6-1.3-1.3l.2.1c-3.3 1.9-7.2 2.6-11 2.8-3.8.1-7.6-.4-11.3-1.3-.9-.2-1.8-.5-2.7-.8l-1.3-.7c-.4-.2-.8-.6-1.2-.8-1.5-1.2-2.6-3-2.6-5s1-3.9 2.7-4.9 3.8-1.1 5.6-.7l-.2.3c-.7-1.5-1-3.2-.7-4.9.4-1.6 1.4-3.1 2.7-4.1 1.3-1 3-1.5 4.7-1.5 1.7-.1 3.3.3 4.8.8l-.3.2c-.5-2.3-.6-4.8.2-7.1.7-2.3 2.6-4.2 4.8-5.1 2.2-.9 4.7-1.2 7.1-.8s4.6 1.8 6 3.8l-.3.1c.2-2.2 1.6-4 3.4-5.1 1.8-1.1 3.9-1.7 5.9-2 2.1-.2 4.3 0 6.1 1 1.9.9 3.2 2.8 4 4.7l-.2-.1c1.6-.9 3.5-1.2 5.3-1.1 1.8.2 3.6 1 4.9 2.3 1.3 1.2 2.4 2.8 3 4.5.3.9.4 1.8.4 2.7 0 .5-.1.9-.2 1.4 0 .2-.1.4-.2.7 0 .1-.1.2-.1.3l.2.1s0 .2 0 0zm-.2.2c0-.2.1-.2.1-.3l.1-.2c0-.1.1-.2.1-.3.1-.2.1-.4.2-.6.1-.4.2-.9.2-1.3 0-.9-.1-1.8-.4-2.6-.6-1.7-1.6-3.2-2.9-4.4-1.3-1.2-3-2-4.8-2.2s-3.6.2-5.2 1.1l-.1.1-.1-.1c-.7-1.9-2-3.7-3.9-4.6-1.8-1-3.9-1.1-6-.9-2 .3-4.1.8-5.8 1.9-1.7 1.1-3.1 2.9-3.2 4.9v.5l-.3-.4c-1.3-1.9-3.5-3.2-5.7-3.6-2.3-.4-4.7-.1-6.9.8-2.1.9-3.9 2.6-4.6 4.9-.7 2.2-.7 4.6-.2 6.9l.1.3-.3-.1c-1.5-.5-3.1-.9-4.7-.8-1.6.1-3.2.5-4.4 1.5-1.3.9-2.2 2.3-2.6 3.9-.3 1.5 0 3.2.7 4.6l.2.4-.4-.1c-1.8-.4-3.8-.3-5.3.6-1.6 1-2.5 2.8-2.5 4.6 0 1.8 1 3.6 2.4 4.7.4.3.7.6 1.1.8l1.2.6c.9.3 1.7.7 2.7.8 3.7.9 7.4 1.4 11.2 1.3 3.7-.2 7.6-.8 10.8-2.7l.1-.1.1.2c.1.5.7.9 1.2 1.1.5.3 1.1.5 1.7.7 1.2.4 2.3.6 3.5.8 2.4.4 4.8.5 7.2.5 2.4 0 4.8-.1 7.2-.8 1.2-.3 2.3-.7 3.3-1.4.5-.3 1-.7 1.4-1.1.4-.4.8-.9 1-1.4l.1-.4.2.3c1 1.5 2.5 2.7 4.2 3.4s3.6 1 5.4.9c3.6-.1 7.3-2 9.2-5.1.9-1.6 1.4-3.4 1.6-5.2s.1-3.7-.4-5.5-1.4-3.5-2.7-4.7c-.7-.6-1.5-1.1-2.3-1.5-.9-.4-1.8-.5-2.8-.7z"/><path class="st0" d="M75 570.7c1.7-.9 3.2-1.9 3.1-2.1-1 1.2-1.2 2.8-.5 4.2 3.6 8.2 21.2 3.7 27.2 1.9-.5 1.9 2.1 2.7 4 2.9 7 .6 13.5-1.8 16-7.8 2 2.4 7.7 1.6 9.4.7 3.3-1.6 5.5-5.1 5.3-8.4-.5-6.3-7.1-8.2-11.5-6.3 2.1-1.4 2.8-3.8 2.4-6-1.1-6.4-9.4-6.3-14.8-5.1.6-2.2 0-3.9-2-5.6-3.9-3.4-8.1-4-12.8-3.3-7.8 1.1-11.7 2.5-15.4 8.7-.3-1.8-3.1-3.8-6.7-3.6-7.8.4-11.1 8.9-8 14.1-2.4-1.1-4.8.6-6.6 2.8-2.1 2.6-2.6 6-1.3 9 2.4 5 10.5 4.8 12.2 3.9z"/><path class="st4" d="M75 570.7c1.7-.9 3.2-1.9 3.1-2.1-1 1.2-1.2 2.8-.5 4.2 3.6 8.2 21.2 3.7 27.2 1.9-.5 1.9 2.1 2.7 4 2.9 7 .6 13.5-1.8 16-7.8 2 2.4 7.7 1.6 9.4.7 3.3-1.6 5.5-5.1 5.3-8.4-.5-6.3-7.1-8.2-11.5-6.3 2.1-1.4 2.8-3.8 2.4-6-1.1-6.4-9.4-6.3-14.8-5.1.6-2.2 0-3.9-2-5.6-3.9-3.4-8.1-4-12.8-3.3-7.8 1.1-11.7 2.5-15.4 8.7-.3-1.8-3.1-3.8-6.7-3.6-7.8.4-11.1 8.9-8 14.1-2.4-1.1-4.8.6-6.6 2.8-2.1 2.6-2.6 6-1.3 9 2.4 5 10.5 4.8 12.2 3.9z"/><path class="st2" d="M139.6 562.2c-.3-3.5-2.4-5.6-4.9-6.5 5.4 5.4-3.9 18.9-9.6 5.2-3.3 13.7-15.9 11.5-16 8.2-2.6 1-26.1 10.9-27.7-2.5-.2-1.6-.8-3-.2-4.3-.4.5-1.3 1.4-2.3 2.2-1.4 1.1-10.8 4.4-13.5-.9-.8-1.7-1.2-6.1 1.1-7.9-.8.6-1.6 1.3-2.2 2.1-2.1 2.6-2.6 6-1.3 9 2.2 5 10.3 4.9 12 4 1.2-.6 2.4-1.4 2.9-1.8-.8 1.1-.9 2.6-.3 3.9 3.6 8.2 21.2 3.7 27.2 1.9-.5 1.9 2.1 2.7 4 2.9 7 .6 13.5-1.8 16-7.8 2 2.4 7.7 1.6 9.4.7 3.4-1.7 5.6-5.2 5.4-8.4z"/><path class="st5" d="M124.2 544.3l-.1.1.1-.1z"/><path class="st4" d="M124.2 544.3l-.1.1.1-.1z"/><path class="st1" d="M103 575.3c.4-.3.7-.5 1.1-.8.3-.2.7-.3 1.1-.6.7-.4 1.4-1 2.1-1.7h.1v.1c-.4.8-.9 1.6-1.6 2.3-.3.3-.7.7-1.2.9-.5.1-1.1.2-1.6-.2z"/><g><path class="st1" d="M124.3 570.8v-1c0-.3.2-.5.3-.8.2-.6.2-1.2.3-1.8l.3.9c.1.3.1.7.1 1s0 .7-.2 1c0 .4-.3.7-.8.7.1.1 0 .1 0 0z"/></g><g><path class="st3" d="M128 555.7c.8-.6 1.5-1.3 1.8-2.2.4-.9.5-1.9.5-2.9-.1-1-.4-1.9-.8-2.8-.5-.8-1.2-1.5-2-2-1.7-1-3.7-1.3-5.7-1.4-2-.1-4 .2-6 .6l-.6.1.2-.6c.5-1.4.1-3-.9-4.2s-2.3-2.1-3.7-2.8c-2.8-1.4-6.1-1.8-9.2-1.6-3.1.3-6.4.8-9.2 2.1-1.4.7-2.7 1.6-3.8 2.7-1.1 1.1-2 2.4-2.9 3.8l-.3.4-.1-.5c-.2-1-1.1-1.9-2.1-2.4-1-.6-2.1-.9-3.2-1-2.2-.2-4.6.4-6.4 1.7-1.8 1.3-3.1 3.4-3.6 5.5-.5 2.2-.3 4.6.9 6.5l.4.7-.7-.3c-1.3-.6-2.7-.3-3.9.5s-2.2 1.8-2.9 3c-.8 1.2-1.3 2.5-1.4 3.9-.1 1.4.2 2.8.7 4.1.6 1.3 1.6 2.2 2.9 2.9 1.2.7 2.6 1 4 1.2 1.4.2 2.9.2 4.2-.2.2 0 .3-.1.5-.2l.5-.2c.3-.2.6-.4.9-.5l.9-.6c.3-.2.6-.5.7-.6l.5.3c-.7 1.2-1.1 2.6-.6 3.8.5 1.2 1.4 2.3 2.5 3 2.3 1.4 5.2 1.7 8 1.8 2.8 0 5.6-.3 8.3-.8 2.7-.5 5.5-1.2 8.1-2l.5-.1-.1.5c-.1.4 0 .9.3 1.2s.7.6 1.2.8c.9.4 1.9.5 2.9.6 2 .1 4.1 0 6.1-.4 2-.5 3.9-1.3 5.5-2.5s2.9-2.9 3.7-4.7l.1-.3.2.3c.9 1.1 2.5 1.4 3.9 1.5 1.5.1 3-.1 4.4-.5 2.7-.9 5-3.3 5.8-6.1s-.2-6.1-2.6-7.8c-2.4-1.7-5.7-2-8.4-.8v-.5c2.8-1.2 6.2-.9 8.7.9s3.6 5.2 2.8 8.2c-.9 2.9-3.1 5.4-6 6.4-1.5.4-3 .6-4.5.5-1.5-.1-3.1-.4-4.2-1.6l.4-.1c-.8 1.9-2.1 3.7-3.8 4.9-1.7 1.3-3.6 2.1-5.7 2.6-2 .5-4.1.6-6.2.5-1 0-2.1-.2-3.1-.6-.5-.2-1-.5-1.4-.9-.4-.4-.5-1.1-.4-1.7l.3.3c-2.7.8-5.4 1.5-8.2 2-2.8.5-5.6.9-8.4.9-1.4 0-2.8-.1-4.2-.4-1.4-.3-2.8-.7-4-1.5-1.2-.8-2.3-1.9-2.8-3.3-.5-1.5-.1-3 .6-4.3l.5.3c-.3.4-.6.5-.9.8l-.9.6-.9.6-.5.3c-.2.1-.4.2-.6.2-1.5.4-3 .3-4.4.2-1.5-.2-2.9-.6-4.2-1.3s-2.5-1.8-3.1-3.2c-.6-1.4-.9-2.9-.8-4.4.1-1.5.7-2.9 1.5-4.2.8-1.2 1.8-2.3 3.1-3.2.6-.4 1.3-.7 2.1-.8.8-.1 1.6 0 2.3.3l-.3.3c-1.2-2-1.5-4.6-.9-6.8.5-2.3 1.9-4.4 3.8-5.8 1.9-1.4 4.3-2 6.6-1.8 1.2.1 2.3.5 3.3 1.1 1 .6 2 1.4 2.3 2.7l-.4-.1c.8-1.4 1.8-2.7 2.9-3.9s2.5-2.1 4-2.8c3-1.4 6.2-2 9.4-2.2 3.2-.2 6.6.1 9.5 1.6 1.5.7 2.8 1.7 3.9 3 .5.7.9 1.4 1.1 2.3.2.8.1 1.7-.1 2.5l-.4-.4c2-.4 4.1-.7 6.1-.6 2.1.1 4.2.4 6 1.5.9.6 1.7 1.3 2.2 2.3.5.9.8 2 .9 3 .1 1.1-.1 2.1-.6 3.1s-1.2 1.8-2.1 2.3l-.3-.3z"/></g><g><path class="st1" d="M129.5 554.8c0 .4-.3.8-.5 1-.3.3-.6.4-1 .5-.7.3-1.4.5-2 .6h-.1c.6-.3 1.2-.7 1.7-1.1.3-.2.5-.5.8-.6.3-.3.6-.4 1.1-.4-.1-.1 0-.1 0 0z"/></g><g><path class="st0" d="M402.2 355.8c7.1.6 7.3 9.9 3.8 13.1-4 3.7-10.9 2.5-13-.7 0 0-1.2 3.4-10.2 3.1-9.1-.4-9.2-2.2-9.2-2.2s-5.7 3.5-16.7.7c-7.7-1.9-5.5-9.7 1-8.3 0 0-1-1.8-.4-3.5.8-2.2 3.7-4.4 8.6-2.7 0 0-2-7 4.9-8.4 5.6-1.2 8 2.4 8 2.4s0-2.7 4-4c3.1-1 8.1-1.3 9.9 3.2 0 0 4.4-2.4 8 1.5 3 3.1 1.3 5.8 1.3 5.8z"/><path class="st2" d="M406.1 357.5c2 2.1.7 6.8-1.3 8.5-4.6 3.9-10.6 1.4-12.5-1.6 0 0-1.5 4.6-9.9 4.2s-8.2-3.5-8.2-3.5-3.4 5.9-17.7 2.4c-3.6-.9-3-6.2 1.4-5.9-7.7-1.3-7.1 6.8-1 8.2 11 2.5 16.7-.7 16.7-.7s.2 1.9 9.2 2.2c9.1.4 10.2-3.1 10.2-3.1 2.1 3.2 9 4.4 13 .7 2.7-2.5 3.2-8.5.1-11.4z"/><path class="st3" d="M402.5 355.7h.9c.2 0 .6.1.9.2.2.1.3.1.5.2l.5.2c.3.2.6.3.9.6 1.1.9 1.9 2.1 2.3 3.5.8 2.7.4 5.6-1.2 8-1.7 2.3-4.6 3.4-7.3 3.4-1.4 0-2.7-.2-4-.7s-2.5-1.3-3.3-2.5l.8-.1c-.2.6-.6.9-.9 1.2-.4.3-.8.6-1.2.8-.8.4-1.7.7-2.6.9-1.8.4-3.5.5-5.3.4s-3.5-.2-5.3-.4c-.9-.1-1.7-.3-2.6-.6-.4-.1-.9-.3-1.3-.5-.2-.1-.4-.2-.6-.4-.2-.2-.4-.3-.5-.7l.5.2c-2.5 1.3-5.2 1.7-8 1.9-2.7.1-5.5-.2-8.1-.8-1.3-.3-2.7-.7-3.9-1.5-1.2-.8-2.2-2.1-2.2-3.7 0-1.5.9-3 2.2-3.7 1.3-.7 2.9-.7 4.3-.4l-.5.7c-.6-1.1-.8-2.4-.5-3.7.4-1.2 1.2-2.2 2.3-2.9 1-.7 2.3-.9 3.5-1 1.2 0 2.4.2 3.5.6l-.6.6c-.2-.9-.3-1.7-.3-2.6s.2-1.8.5-2.6c.7-1.7 2.2-2.9 3.8-3.5 1.7-.5 3.4-.7 5.1-.4 1.7.3 3.3 1.2 4.4 2.7l-.7.2c.2-1.7 1.4-3 2.7-3.7 1.4-.7 2.8-1.1 4.3-1.2s3.1 0 4.5.7c1.4.6 2.5 1.9 3 3.3l-.4-.2c1.2-.6 2.5-.8 3.8-.7s2.6.6 3.6 1.5c1 .8 1.9 1.9 2.4 3.1.2.6.3 1.3.3 2 0 .3-.1.7-.1 1 0 .2-.1.3-.1.6-.1 0-.2.1-.2.1l-.1.1v.1s0 .1 0 0c.3-.2.3-.3.3-.3zm-.6.2v-.5c0-.1.1-.1.1-.2s.1-.3.1-.4c.1-.3.1-.6.1-.9 0-.6-.1-1.2-.3-1.7-.4-1.1-1.2-2.1-2.2-2.9-.9-.8-2.1-1.3-3.3-1.3-1.2-.1-2.5.2-3.5.7l-.3.1-.1-.3c-.5-1.3-1.5-2.4-2.8-3-1.3-.6-2.7-.7-4.1-.6-1.4.2-2.8.5-4 1.2-.6.3-1.1.8-1.6 1.3-.4.5-.7 1.2-.7 1.8l-.1 1.1-.7-.9c-.9-1.2-2.4-2-3.9-2.3-1.5-.3-3.2-.1-4.7.4s-2.7 1.5-3.3 3c-.6 1.4-.6 3.1-.2 4.6l.2.8-.8-.3c-1-.3-2.1-.6-3.2-.6s-2.1.3-3 .8-1.6 1.4-1.9 2.4c-.3.9-.1 2.1.4 2.9l.4.9-1-.2c-1.2-.3-2.5-.2-3.6.4s-1.7 1.7-1.7 2.9c.1 1.2.8 2.3 1.8 3 1 .7 2.2 1.2 3.6 1.4 2.6.6 5.2 1 7.9.9 2.6-.1 5.4-.5 7.7-1.7l.5.2s0 .1.1.1l.2.2c.1.1.3.2.5.3.4.2.8.3 1.2.4.8.2 1.7.4 2.5.5 1.7.2 3.4.3 5.2.4 1.7 0 3.5-.1 5.1-.5.8-.2 1.6-.5 2.3-.9.4-.2.7-.4 1-.7.3-.2.6-.6.7-.8l.3-.8.5.7c.7 1 1.7 1.7 2.9 2.1 1.2.4 2.4.6 3.7.6 1.2 0 2.5-.3 3.6-.8s2.1-1.3 2.8-2.2c.7-1 1.1-2.2 1.2-3.4.2-1.2.1-2.5-.2-3.7-.3-1.2-.9-2.3-1.8-3.1-.2-.2-.5-.4-.7-.5l-.4-.3-.4-.2c-.5.1-1.4-.1-2.1-.4z"/></g><g><path d="M140.2 973.8c102.2 2.1 368.7 40.7 514.3 40s184.7-35.1 304.4-60.7c86.8-18.6 151.1-28.7 216.7-29.2.6-.6 1.2-1.2 1.7-1.8.6-.7 1.1-1.4 2-1.8.6-.3 1.2-.3 1.9-.3.9 0 1.8 0 2.6-.1 1.2-1.9 1.8-3.9 1.9-6-1.9.8-3.9 1.2-6 1.4-4.9.4-9.8-.7-14.5-2.3-1.7-.6-3.7-1.7-3.7-3.5 6-2.6 11.2-6.5 16.3-10.7-1.4-1.6-2.8-3.3-4.1-4.9-.8-.9.5-2.2 1.3-1.3 1.4 1.7 2.9 3.3 4.3 5 4.6-3.9 9.1-7.9 13.9-11.5l1.4.2c.8 3.8 1.6 7.7 1.5 11.6s-1.1 7.9-3.5 11c-1.1 1.4-2.4 2.6-3.9 3.5.8 1.6.8 3.6.7 5.6 0 .9.2 2.2-.4 3 2.5.1 5-.7 7.1.6.9.5 1.6 1.5 2.3 2.4 17.5.5 35.2 1.6 53.7 3.4 96.6 9.6 155.1 13 246.4 2.8 92.4-10.3 199.1 42.1 292.8 42.1v253.4H0V972.3c0 .1 38.1-.6 140.2 1.5z" fill="#82bddf"/></g><g><path d="M1723 1047.3c-.5 0-1.2.1-1.9.1v-4.7c2.2-.1 4.3-.1 6.4-.3-2.7-10.4-5.4-20.9-8-31.3 0 0-2.6 15.7-5.8 26.5-3.1-15.9-6.1-31.8-9.2-47.7 0 0-4.2 34.1-8.9 49.6 2.8.2 5.7.2 8.5.2 0 2.5 0 5.1.1 7.6-54.9-1.2-204-9-300.3-15v-4.4c2.2 0 4.5-.2 6.7-.3-2.5-11.2-5-22.5-7.4-33.7 0 0-.9 6.7-2.4 14.5-2-9.2-4.1-18.4-6.1-27.6 0 0-4.4 31-9.3 45 2.6.1 5.2.2 7.8.1v5.7c-37-2.3-64.6-4.3-73.3-5.4-31.9-3.9-375.8-1.5-493.5-.2v-5.3c2.9-.1 5.7-.2 8.5-.5-3.2-16.4-6.3-32.8-9.5-49.2 0 0-3.1 24.9-6.9 41.8-2.3-11.6-4-25.5-4-25.5l-5.4 28.2c-2.5-11.1-4.5-27.2-4.5-27.2-2.1 10.8-4.2 21.6-6.2 32.4l4.8.3v5.4h-1.9c-80.8 1.1-246.7 6.3-338.1 0-40.3-2.8-113.6-.2-192.5 3.5v-4.2c2.9 0 5.7 0 8.5-.2-4.7-15.5-8.9-49.6-8.9-49.6-2.6 13.4-5.2 26.9-7.8 40.3-2.2-11.3-3.7-24-3.7-24-2.3 11.8-4.5 23.6-6.8 35.4 1.8.2 3.5.3 5.3.3v2.7c-65.5 3.2-133.8 6.9-189.3 9v-5.4c3.1 0 6.2 0 9.3-.1-5.1-12.5-9.7-40.2-9.7-40.2-1.4 5.3-2.7 10.6-4.1 15.9-2.4-13.7-4-26.9-4-26.9l-6 31.2c-2.3-10.5-3.9-20.1-3.9-20.1-3 11.8-6.1 23.7-9.1 35.5-2.2-8.2-3.8-18-3.8-18-2.2 8.4-4.3 16.8-6.5 25.2 1.7.1 3.4.2 5.2.2 0 1.3 0 2.5-.1 3.8v.1c-13 .3-24.8.5-35.4.5v178.9h1791.9V1041c.1 0-37.3 4.2-68.8 6.3zm-1463.6-19.5c1.9 0 3.9 0 5.8-.1-.2-.7-.5-1.5-.7-2.4 1.3.1 2.7.1 4 .2v4.4c-3.1.1-6.1.3-9.2.4.1-.8.1-1.7.1-2.5zm-193.5 11.7c-2 .1-4 .1-6 .2v-6c2 .1 4 .2 6 .2v5.6zm-8.1-5.5v5.8c-2.7.1-5.3.2-7.9.3v-6c2.7 0 5.3-.1 7.9-.1zm-20.3 6.4c0-1.2 0-2.5.1-3.7 1.8 0 3.5 0 5.3-.1-.3-.8-.7-1.8-1-2.8 2 .1 4.1.2 6.1.2v6.1c-3.7.1-7.1.2-10.5.3zm786.9-19.7v5.3c-3.3 0-6.3.1-9.2.1v-3.2c1.9 0 3.9 0 5.8-.1-.2-.7-.4-1.4-.6-2.2 1.3.1 2.6.1 4 .1zm-19.1.3h2.8c-.1.6-.2 1.1-.3 1.7 1.8.2 3.5.3 5.3.3v3.2c-2.8 0-5.4.1-7.8.1v-5.3zm590 4.9c.5 0 1 0 1.5-.1-.2.7-.4 1.3-.6 1.9 1.9.1 3.7.1 5.6.1v4.2c-2.2-.1-4.4-.3-6.5-.4v-5.7zm311 21.5c0-2.6 0-5.1-.1-7.7 2.3-.1 4.7-.2 7-.4-.4 1.2-.8 2.4-1.2 3.4 2.3.1 4.7.1 7.1.1v4.7c-3.2 0-7.5 0-12.8-.1z" fill="#067abe"/></g><g><path class="st0" d="M1508.2 172.2c1.7-.9 3.2-1.9 3.1-2.1-1 1.2-1.2 2.8-.5 4.2 3.6 8.2 21.2 3.7 27.2 1.9-.5 1.9 2.1 2.7 4 2.9 7 .6 13.5-1.8 16-7.8 2 2.4 7.7 1.6 9.4.7 3.3-1.6 5.5-5.1 5.3-8.4-.5-6.3-7.1-8.2-11.5-6.3 2.1-1.4 2.8-3.8 2.4-6-1.1-6.4-9.4-6.3-14.8-5.1.6-2.2 0-3.9-2-5.6-3.9-3.4-8.1-4-12.8-3.3-7.8 1.1-11.7 2.5-15.4 8.7-.3-1.8-3.1-3.8-6.7-3.6-7.8.4-11.1 8.9-8 14.1-2.4-1.1-4.8.6-6.6 2.8-2.1 2.6-2.6 6-1.3 9 2.4 5 10.5 4.8 12.2 3.9z"/><path class="st4" d="M1508.2 172.2c1.7-.9 3.2-1.9 3.1-2.1-1 1.2-1.2 2.8-.5 4.2 3.6 8.2 21.2 3.7 27.2 1.9-.5 1.9 2.1 2.7 4 2.9 7 .6 13.5-1.8 16-7.8 2 2.4 7.7 1.6 9.4.7 3.3-1.6 5.5-5.1 5.3-8.4-.5-6.3-7.1-8.2-11.5-6.3 2.1-1.4 2.8-3.8 2.4-6-1.1-6.4-9.4-6.3-14.8-5.1.6-2.2 0-3.9-2-5.6-3.9-3.4-8.1-4-12.8-3.3-7.8 1.1-11.7 2.5-15.4 8.7-.3-1.8-3.1-3.8-6.7-3.6-7.8.4-11.1 8.9-8 14.1-2.4-1.1-4.8.6-6.6 2.8-2.1 2.6-2.6 6-1.3 9 2.4 5 10.5 4.8 12.2 3.9z"/><path class="st2" d="M1572.8 163.7c-.3-3.5-2.4-5.6-4.9-6.5 5.4 5.4-3.9 18.9-9.6 5.2-3.3 13.7-15.9 11.5-16 8.2-2.6 1-26.1 10.9-27.7-2.5-.2-1.6-.8-3-.2-4.3-.4.5-1.3 1.4-2.3 2.2-1.4 1.1-10.8 4.4-13.5-.9-.8-1.7-1.2-6.1 1.1-7.9-.8.6-1.6 1.3-2.2 2.1-2.1 2.6-2.6 6-1.3 9 2.2 5 10.3 4.9 12 4 1.2-.6 2.4-1.4 2.9-1.8-.8 1.1-.9 2.6-.3 3.9 3.6 8.2 21.2 3.7 27.2 1.9-.5 1.9 2.1 2.7 4 2.9 7 .6 13.5-1.8 16-7.8 2 2.4 7.7 1.6 9.4.7 3.4-1.7 5.6-5.2 5.4-8.4z"/><path class="st5" d="M1557.4 145.8l-.1.1.1-.1z"/><path class="st4" d="M1557.4 145.8l-.1.1.1-.1z"/><path class="st1" d="M1536.2 176.8c.4-.3.7-.5 1.1-.8.3-.2.7-.3 1.1-.6.7-.4 1.4-1 2.1-1.7h.1v.1c-.4.8-.9 1.6-1.6 2.3-.3.3-.7.7-1.2.9-.5.1-1.1.2-1.6-.2z"/><g><path class="st1" d="M1557.5 172.3v-1c0-.3.2-.5.3-.8.2-.6.2-1.2.3-1.8l.3.9c.1.3.1.7.1 1s0 .7-.2 1c0 .4-.3.7-.8.7.1.1 0 .1 0 0z"/></g><g><path class="st3" d="M1561.2 157.2c.8-.6 1.5-1.3 1.8-2.2.4-.9.5-1.9.5-2.9-.1-1-.4-1.9-.8-2.8-.5-.8-1.2-1.5-2-2-1.7-1-3.7-1.3-5.7-1.4-2-.1-4 .2-6 .6l-.6.1.2-.6c.5-1.4.1-3-.9-4.2s-2.3-2.1-3.7-2.8c-2.8-1.4-6.1-1.8-9.2-1.6-3.1.3-6.4.8-9.2 2.1-1.4.7-2.7 1.6-3.8 2.7-1.1 1.1-2 2.4-2.9 3.8l-.3.4-.1-.5c-.2-1-1.1-1.9-2.1-2.4-1-.6-2.1-.9-3.2-1-2.2-.2-4.6.4-6.4 1.7-1.8 1.3-3.1 3.4-3.6 5.5-.5 2.2-.3 4.6.9 6.5l.4.7-.7-.3c-1.3-.6-2.7-.3-3.9.5-1.2.8-2.2 1.8-2.9 3-.8 1.2-1.3 2.5-1.4 3.9s.2 2.8.7 4.1c.6 1.3 1.6 2.2 2.9 2.9 1.2.7 2.6 1 4 1.2s2.9.2 4.2-.2c.2 0 .3-.1.5-.2l.5-.2c.3-.2.6-.4.9-.5l.9-.6c.3-.2.6-.5.7-.6l.5.3c-.7 1.2-1.1 2.6-.6 3.8s1.4 2.3 2.5 3c2.3 1.4 5.2 1.7 8 1.8 2.8 0 5.6-.3 8.3-.8 2.7-.5 5.5-1.2 8.1-2l.5-.1-.1.5c-.1.4 0 .9.3 1.2.3.3.7.6 1.2.8.9.4 1.9.5 2.9.6 2 .1 4.1 0 6.1-.4 2-.5 3.9-1.3 5.5-2.5s2.9-2.9 3.7-4.7l.1-.3.2.3c.9 1.1 2.5 1.4 3.9 1.5 1.5.1 3-.1 4.4-.5 2.7-.9 5-3.3 5.8-6.1.8-2.8-.2-6.1-2.6-7.8-2.4-1.7-5.7-2-8.4-.8v-.5c2.8-1.2 6.2-.9 8.7.9 2.5 1.8 3.6 5.2 2.8 8.2-.9 2.9-3.1 5.4-6 6.4-1.5.4-3 .6-4.5.5s-3.1-.4-4.2-1.6l.4-.1c-.8 1.9-2.1 3.7-3.8 4.9-1.7 1.3-3.6 2.1-5.7 2.6-2 .5-4.1.6-6.2.5-1 0-2.1-.2-3.1-.6-.5-.2-1-.5-1.4-.9s-.5-1.1-.4-1.7l.3.3c-2.7.8-5.4 1.5-8.2 2-2.8.5-5.6.9-8.4.9-1.4 0-2.8-.1-4.2-.4-1.4-.3-2.8-.7-4-1.5s-2.3-1.9-2.8-3.3c-.5-1.5-.1-3 .6-4.3l.5.3c-.3.4-.6.5-.9.8l-.9.6-.9.6-.5.3c-.2.1-.4.2-.6.2-1.5.4-3 .3-4.4.2-1.5-.2-2.9-.6-4.2-1.3s-2.5-1.8-3.1-3.2-.9-2.9-.8-4.4.7-2.9 1.5-4.2c.8-1.2 1.8-2.3 3.1-3.2.6-.4 1.3-.7 2.1-.8.8-.1 1.6 0 2.3.3l-.3.3c-1.2-2-1.5-4.6-.9-6.8.5-2.3 1.9-4.4 3.8-5.8 1.9-1.4 4.3-2 6.6-1.8 1.2.1 2.3.5 3.3 1.1s2 1.4 2.3 2.7l-.4-.1c.8-1.4 1.8-2.7 2.9-3.9s2.5-2.1 4-2.8c3-1.4 6.2-2 9.4-2.2s6.6.1 9.5 1.6c1.5.7 2.8 1.7 3.9 3 .5.7.9 1.4 1.1 2.3.2.8.1 1.7-.1 2.5l-.4-.4c2-.4 4.1-.7 6.1-.6 2.1.1 4.2.4 6 1.5.9.6 1.7 1.3 2.2 2.3.5.9.8 2 .9 3 .1 1.1-.1 2.1-.6 3.1s-1.2 1.8-2.1 2.3l-.3-.3z"/></g><g><path class="st1" d="M1562.7 156.3c0 .4-.3.8-.5 1-.3.3-.6.4-1 .5-.7.3-1.4.5-2 .6h-.1c.6-.3 1.2-.7 1.7-1.1.3-.2.5-.5.8-.6.3-.3.6-.4 1.1-.4-.1-.1 0-.1 0 0z"/></g></g></svg>