<svg xmlns="http://www.w3.org/2000/svg" viewBox="0 0 1420.31 190.38"><defs><style>.cls-1{fill:#172153;}</style></defs><title>LOGO 4 (blue)</title><g id="Layer_2" data-name="Layer 2"><g id="Layer_1-2" data-name="Layer 1"><path class="cls-1" d="M136.65,18.51H95.93a44,44,0,0,0-41,28L0,187.12H55.13l14.56-49.53h31.9l1,49.53h57ZM78.56,107.44,95.34,50.35h4.52L101,107.44Z"/><path class="cls-1" d="M317.7,60l-12.58,87.8q-3.36,22.55-21.25,32.51t-50.92,10q-33,0-48.17-10T173,147.8L187.6,49.47a36.31,36.31,0,0,1,35.9-31h24.91l-20,134.79c-.63,4.19,2.35,6.29,8.91,6.29s10.15-2.1,10.79-6.29L261.48,60Z"/><path class="cls-1" d="M467.18,18.51l-4.56,30.68H424.87L406.94,169.87l-2.56,17.25H348.17l10-67.21,10.51-70.72H263.08a36,36,0,0,1,35.58-30.68h74.51l2.55-17.24h56.54l-2.59,17.24Z"/><path class="cls-1" d="M589.3,25.33q-14.94-10-48-10t-51.12,10q-18.1,10-21.46,32.51l-13.36,89.95q-3.34,22.56,11.79,32.52t48.17,10q33,0,50.91-10t21.25-32.52l13.36-89.95Q604.23,35.3,589.3,25.33Zm-43.82,27-15,100.95q-.93,6.3-10.78,6.3c-6.57,0-9.53-2.1-8.91-6.3l15-100.95q.93-6.3,10.78-6.29T545.48,52.34Z"/><polygon class="cls-1" points="368.67 49.19 358.16 119.91 368.63 49.19 368.67 49.19"/><polygon class="cls-1" points="425.07 49.19 406.97 169.87 406.94 169.87 424.87 49.19 425.07 49.19"/><path class="cls-1" d="M622.34,163.59,640.76,17.81h48.72q39.1,0,33.8,42c-3.66,29-18.69,45.3-44.71,45.3H652.12l-7.43,58.5Zm33.22-85.72h31.29c9-.19,12.88-6.64,14.45-17.14,1-9.59-1.34-15.22-10.13-15.61H659.65Z"/><path class="cls-1" d="M793.25,101.78l20,61.81H787.63l-19.31-58.5H747.91l-7.43,58.5H718.13L736.54,17.81h48.72q39.12,0,33.81,42C816.41,80.85,807.69,96,793.25,101.78Zm-41.9-23.91h31.29c9-.19,12.87-7.29,14.45-17.78,1-9.59-1.34-14.58-10.13-15H755.44Z"/><path class="cls-1" d="M829.37,142.65q-13.36-21-9.45-51.95t22.59-52Q861.16,17.82,885,17.81t37.22,20.9q13.38,20.9,9.45,52t-22.59,52q-18.66,20.91-42.49,20.9T829.37,142.65Zm40.73-6.27q14.82,0,25.79-13.12T909.32,90.7q2.45-19.44-5.2-32.56T881.49,45q-14.82,0-25.8,13.12T842.27,90.7q-2.46,19.44,5.2,32.56T870.1,136.38Z"/><path class="cls-1" d="M934.82,163.59,953.23,17.81h21.36l24.34,69.53,44-69.53h22.16l-18.41,145.78h-22.35l12.46-99.65-41.52,63.69L969.62,63.7l-12.45,99.89Z"/><path class="cls-1" d="M1074.82,142.65q-13.36-21-9.45-51.95t22.58-52q18.66-20.89,42.5-20.9t37.22,20.9q13.36,20.9,9.45,52t-22.59,52q-18.66,20.91-42.5,20.9T1074.82,142.65Zm40.73-6.27q14.82,0,25.79-13.12t13.43-32.56q2.45-19.44-5.2-32.56T1126.94,45q-14.84,0-25.8,13.12T1087.72,90.7q-2.46,19.44,5.2,32.56T1115.55,136.38Z"/><path class="cls-1" d="M1420.31,0l-17.92,133.8a65.24,65.24,0,0,1-64.65,56.58H1220.12l2.46-17,5.14-35.51q5.54,6.27,19.17,7.15,21.1,0,35.33-13.24t16.7-30.87q2.47-17.64-8.05-30.88t-31.62-13.23q-9.91,0-21.17,7.06l1-7.06-25.74.06-16.49,116.52-2.41,17H618.35l2.15-17h561.21l15.64-116.79A65.23,65.23,0,0,1,1262,0h61.13L1303,145.08h25.68l7.77-52.55a19.65,19.65,0,0,1,20.15-11.35c11.66,1.44,11.8,9.51,11,15.39l-6.79,48.51h25.68l7.66-54.69a30.15,30.15,0,0,0-5.9-23.38c-5.17-6.76-13.57-9.57-25.19-10.14-8.32-.41-18.07,1.45-22.94,6.94L1348.81,0Z"/></g></g></svg>